<?xml version="1.0" standalone="no"?>
<!DOCTYPE svg PUBLIC "-//W3C//DTD SVG 20010904//EN"
 "http://www.w3.org/TR/2001/REC-SVG-20010904/DTD/svg10.dtd">
<svg version="1.0" xmlns="http://www.w3.org/2000/svg"
 width="1024.000000pt" height="1024.000000pt" viewBox="0 0 1024.000000 1024.000000"
 preserveAspectRatio="xMidYMid meet">
<metadata>
Created by potrace 1.14, written by Peter Selinger 2001-2017
</metadata>
<g transform="translate(0.000000,1024.000000) scale(0.100000,-0.100000)"
fill="#000000" stroke="none">
<path d="M8140 9089 c-43 -7 -82 -14 -126 -23 -127 -26 -357 -130 -459 -208
-318 -243 -494 -534 -549 -904 -13 -85 -14 -293 -2 -359 l7 -40 -383 -144
c-211 -79 -396 -150 -413 -156 -46 -19 -609 -232 -1120 -424 l-160 -60 -25 44
c-82 140 -234 296 -390 400 -131 87 -306 166 -422 189 -147 30 -193 35 -308
36 -401 4 -776 -172 -1040 -486 -84 -101 -185 -281 -230 -414 -75 -223 -89
-495 -36 -740 13 -58 61 -191 97 -266 86 -182 212 -340 372 -464 48 -38 114
-85 147 -105 l60 -36 -16 -37 c-9 -20 -20 -48 -26 -62 -5 -14 -16 -39 -24 -57
-29 -67 -44 -103 -124 -293 -45 -107 -88 -210 -96 -227 -8 -18 -20 -48 -28
-65 -8 -18 -53 -125 -100 -238 -48 -113 -91 -214 -96 -225 -35 -77 -60 -136
-60 -141 0 -3 -9 -24 -19 -47 -10 -23 -51 -118 -91 -212 -39 -93 -75 -174 -79
-178 -5 -5 -26 -4 -47 2 -22 5 -55 13 -74 16 -57 11 -331 14 -380 5 -25 -4
-61 -11 -80 -14 -60 -9 -211 -56 -281 -86 -295 -130 -534 -361 -674 -654 -41
-88 -79 -196 -91 -259 -2 -17 -7 -33 -9 -36 -18 -30 -34 -350 -21 -421 3 -14
7 -42 10 -62 38 -253 166 -512 348 -703 70 -74 227 -205 245 -205 3 0 14 -6
22 -14 53 -47 314 -153 422 -171 24 -4 52 -9 63 -11 96 -18 235 -22 351 -11
370 37 716 236 942 543 106 144 183 318 224 504 20 88 24 132 23 275 0 170 -3
193 -31 315 -69 303 -263 589 -522 772 -48 33 -88 62 -90 64 -4 3 14 46 149
364 50 118 121 285 157 370 36 85 117 277 180 425 63 149 123 291 133 316 10
26 28 66 39 90 11 24 38 87 60 139 45 107 32 101 166 86 322 -37 671 56 929
248 99 73 225 198 293 291 125 168 218 404 248 625 6 48 6 278 0 315 -3 17
-10 58 -16 93 -6 35 -10 64 -8 66 9 6 149 60 339 131 271 101 328 123 370 140
19 8 82 32 140 53 58 22 260 98 450 170 190 71 365 138 390 147 25 9 54 21 65
25 11 5 79 31 152 58 l132 50 40 -72 c198 -359 579 -624 967 -671 33 -4 68 -9
79 -12 31 -6 215 -5 258 1 20 3 54 8 74 11 74 11 165 35 256 69 380 143 679
457 801 844 14 45 28 95 31 110 3 15 7 38 10 52 29 141 24 383 -10 530 -125
530 -535 923 -1065 1020 -100 19 -336 24 -420 9z"/>
<path d="M7409 5832 c-5 -2 -47 -61 -92 -130 -129 -198 -308 -476 -347 -537
-19 -31 -255 -397 -525 -815 -269 -418 -517 -801 -549 -852 -33 -51 -129 -201
-214 -333 -85 -132 -180 -278 -210 -325 -142 -221 -191 -296 -234 -363 l-47
-72 -1 -217 0 -218 1155 0 1155 0 1 -42 c0 -24 1 -350 1 -726 l1 -682 252 0
253 0 1 713 c0 391 0 718 1 725 0 9 98 12 458 12 l457 0 -1 211 c0 137 -4 213
-11 217 -6 4 -213 7 -460 6 l-448 -1 1 1714 c2 1580 0 1713 -15 1713 -130 3
-574 4 -582 2z m116 -1950 l0 -1479 -902 0 c-822 0 -901 2 -893 16 4 9 62 100
127 203 195 309 261 414 386 613 66 105 135 213 152 240 18 28 52 82 77 120
64 100 380 601 398 630 8 13 72 116 141 227 229 369 338 558 445 776 36 72 66
132 67 132 1 0 2 -665 2 -1478z"/>
</g>
</svg>
